<mxfile host="Electron" agent="Mozilla/5.0 (Windows NT 10.0; Win64; x64) AppleWebKit/537.36 (KHTML, like Gecko) draw.io/24.7.17 Chrome/128.0.6613.36 Electron/32.0.1 Safari/537.36" version="24.7.17">
  <diagram id="hPJmeEbqM_uJhu1WUBgI" name="Page-2">
    <mxGraphModel dx="1017" dy="3588" grid="1" gridSize="10" guides="1" tooltips="1" connect="1" arrows="1" fold="1" page="1" pageScale="1" pageWidth="827" pageHeight="1169" math="0" shadow="0">
      <root>
        <mxCell id="0" />
        <mxCell id="1" parent="0" />
        <mxCell id="ZoxIKXAUOeXcQ5-5phDQ-10" value="" style="edgeStyle=orthogonalEdgeStyle;rounded=0;orthogonalLoop=1;jettySize=auto;html=1;" parent="1" source="ZoxIKXAUOeXcQ5-5phDQ-11" target="ZoxIKXAUOeXcQ5-5phDQ-14" edge="1">
          <mxGeometry relative="1" as="geometry" />
        </mxCell>
        <mxCell id="ZoxIKXAUOeXcQ5-5phDQ-11" value="Start" style="ellipse;whiteSpace=wrap;html=1;" parent="1" vertex="1">
          <mxGeometry x="188" y="-2290" width="120" height="80" as="geometry" />
        </mxCell>
        <mxCell id="ZoxIKXAUOeXcQ5-5phDQ-21" value="" style="edgeStyle=orthogonalEdgeStyle;rounded=0;orthogonalLoop=1;jettySize=auto;html=1;" parent="1" source="ZoxIKXAUOeXcQ5-5phDQ-12" target="ZoxIKXAUOeXcQ5-5phDQ-15" edge="1">
          <mxGeometry relative="1" as="geometry" />
        </mxCell>
        <mxCell id="sU-5Mp4BqcbcbJBGRLXP-1" value="" style="edgeStyle=orthogonalEdgeStyle;rounded=0;orthogonalLoop=1;jettySize=auto;html=1;entryX=0;entryY=0.5;entryDx=0;entryDy=0;" parent="1" source="ZoxIKXAUOeXcQ5-5phDQ-12" edge="1">
          <mxGeometry relative="1" as="geometry">
            <mxPoint x="458.0000000000034" y="-2024.9999999999998" as="targetPoint" />
          </mxGeometry>
        </mxCell>
        <mxCell id="ZoxIKXAUOeXcQ5-5phDQ-12" value="option == 1" style="rhombus;whiteSpace=wrap;html=1;" parent="1" vertex="1">
          <mxGeometry x="198" y="-2070" width="100" height="90" as="geometry" />
        </mxCell>
        <mxCell id="ZoxIKXAUOeXcQ5-5phDQ-13" value="" style="edgeStyle=orthogonalEdgeStyle;rounded=0;orthogonalLoop=1;jettySize=auto;html=1;" parent="1" source="ZoxIKXAUOeXcQ5-5phDQ-14" target="ZoxIKXAUOeXcQ5-5phDQ-12" edge="1">
          <mxGeometry relative="1" as="geometry" />
        </mxCell>
        <mxCell id="ZoxIKXAUOeXcQ5-5phDQ-14" value="Input&amp;nbsp; the choice of&amp;nbsp; university management role menu ( 1- 6)" style="shape=parallelogram;perimeter=parallelogramPerimeter;whiteSpace=wrap;html=1;fixedSize=1;" parent="1" vertex="1">
          <mxGeometry x="148" y="-2170" width="200" height="60" as="geometry" />
        </mxCell>
        <mxCell id="ZoxIKXAUOeXcQ5-5phDQ-22" value="" style="edgeStyle=orthogonalEdgeStyle;rounded=0;orthogonalLoop=1;jettySize=auto;html=1;" parent="1" source="ZoxIKXAUOeXcQ5-5phDQ-15" target="ZoxIKXAUOeXcQ5-5phDQ-16" edge="1">
          <mxGeometry relative="1" as="geometry" />
        </mxCell>
        <mxCell id="ZoxIKXAUOeXcQ5-5phDQ-42" value="" style="edgeStyle=orthogonalEdgeStyle;rounded=0;orthogonalLoop=1;jettySize=auto;html=1;entryX=0;entryY=0.5;entryDx=0;entryDy=0;" parent="1" source="ZoxIKXAUOeXcQ5-5phDQ-15" edge="1">
          <mxGeometry relative="1" as="geometry">
            <mxPoint x="458.0000000000034" y="-1905" as="targetPoint" />
          </mxGeometry>
        </mxCell>
        <mxCell id="ZoxIKXAUOeXcQ5-5phDQ-15" value="option == 2" style="rhombus;whiteSpace=wrap;html=1;" parent="1" vertex="1">
          <mxGeometry x="198" y="-1950" width="100" height="90" as="geometry" />
        </mxCell>
        <mxCell id="ZoxIKXAUOeXcQ5-5phDQ-23" value="" style="edgeStyle=orthogonalEdgeStyle;rounded=0;orthogonalLoop=1;jettySize=auto;html=1;" parent="1" source="ZoxIKXAUOeXcQ5-5phDQ-16" target="ZoxIKXAUOeXcQ5-5phDQ-17" edge="1">
          <mxGeometry relative="1" as="geometry" />
        </mxCell>
        <mxCell id="ZoxIKXAUOeXcQ5-5phDQ-44" value="" style="edgeStyle=orthogonalEdgeStyle;rounded=0;orthogonalLoop=1;jettySize=auto;html=1;entryX=0;entryY=0.5;entryDx=0;entryDy=0;" parent="1" source="ZoxIKXAUOeXcQ5-5phDQ-16" edge="1">
          <mxGeometry relative="1" as="geometry">
            <mxPoint x="458.0000000000034" y="-1785" as="targetPoint" />
          </mxGeometry>
        </mxCell>
        <mxCell id="ZoxIKXAUOeXcQ5-5phDQ-16" value="&lt;div&gt;option == 3&lt;/div&gt;" style="rhombus;whiteSpace=wrap;html=1;" parent="1" vertex="1">
          <mxGeometry x="198" y="-1830" width="100" height="90" as="geometry" />
        </mxCell>
        <mxCell id="ZoxIKXAUOeXcQ5-5phDQ-25" value="" style="edgeStyle=orthogonalEdgeStyle;rounded=0;orthogonalLoop=1;jettySize=auto;html=1;" parent="1" source="ZoxIKXAUOeXcQ5-5phDQ-17" target="ZoxIKXAUOeXcQ5-5phDQ-18" edge="1">
          <mxGeometry relative="1" as="geometry" />
        </mxCell>
        <mxCell id="ZoxIKXAUOeXcQ5-5phDQ-46" value="" style="edgeStyle=orthogonalEdgeStyle;rounded=0;orthogonalLoop=1;jettySize=auto;html=1;entryX=0;entryY=0.5;entryDx=0;entryDy=0;" parent="1" source="ZoxIKXAUOeXcQ5-5phDQ-17" edge="1">
          <mxGeometry relative="1" as="geometry">
            <mxPoint x="458.0000000000034" y="-1665" as="targetPoint" />
          </mxGeometry>
        </mxCell>
        <mxCell id="ZoxIKXAUOeXcQ5-5phDQ-17" value="&lt;div&gt;option == 4&lt;/div&gt;" style="rhombus;whiteSpace=wrap;html=1;" parent="1" vertex="1">
          <mxGeometry x="198" y="-1710" width="100" height="90" as="geometry" />
        </mxCell>
        <mxCell id="ZoxIKXAUOeXcQ5-5phDQ-26" value="" style="edgeStyle=orthogonalEdgeStyle;rounded=0;orthogonalLoop=1;jettySize=auto;html=1;" parent="1" source="ZoxIKXAUOeXcQ5-5phDQ-18" target="ZoxIKXAUOeXcQ5-5phDQ-19" edge="1">
          <mxGeometry relative="1" as="geometry" />
        </mxCell>
        <mxCell id="ZoxIKXAUOeXcQ5-5phDQ-48" value="" style="edgeStyle=orthogonalEdgeStyle;rounded=0;orthogonalLoop=1;jettySize=auto;html=1;entryX=0;entryY=0.5;entryDx=0;entryDy=0;" parent="1" source="ZoxIKXAUOeXcQ5-5phDQ-18" edge="1">
          <mxGeometry relative="1" as="geometry">
            <mxPoint x="458.0000000000034" y="-1540" as="targetPoint" />
          </mxGeometry>
        </mxCell>
        <mxCell id="ZoxIKXAUOeXcQ5-5phDQ-18" value="&lt;div&gt;option == 5&lt;/div&gt;" style="rhombus;whiteSpace=wrap;html=1;" parent="1" vertex="1">
          <mxGeometry x="198" y="-1585" width="100" height="90" as="geometry" />
        </mxCell>
        <mxCell id="ZoxIKXAUOeXcQ5-5phDQ-28" value="" style="edgeStyle=orthogonalEdgeStyle;rounded=0;orthogonalLoop=1;jettySize=auto;html=1;" parent="1" source="ZoxIKXAUOeXcQ5-5phDQ-19" target="ZoxIKXAUOeXcQ5-5phDQ-27" edge="1">
          <mxGeometry relative="1" as="geometry" />
        </mxCell>
        <mxCell id="ZoxIKXAUOeXcQ5-5phDQ-19" value="option == 6" style="rhombus;whiteSpace=wrap;html=1;" parent="1" vertex="1">
          <mxGeometry x="193" y="-1475" width="110" height="90" as="geometry" />
        </mxCell>
        <mxCell id="ZoxIKXAUOeXcQ5-5phDQ-27" value="Stop" style="ellipse;whiteSpace=wrap;html=1;" parent="1" vertex="1">
          <mxGeometry x="188" y="-1355" width="120" height="80" as="geometry" />
        </mxCell>
        <mxCell id="ZoxIKXAUOeXcQ5-5phDQ-50" value="Yes" style="text;html=1;align=center;verticalAlign=middle;resizable=0;points=[];autosize=1;strokeColor=none;fillColor=none;" parent="1" vertex="1">
          <mxGeometry x="308" y="-2062" width="40" height="30" as="geometry" />
        </mxCell>
        <mxCell id="ZoxIKXAUOeXcQ5-5phDQ-51" value="No" style="text;html=1;align=center;verticalAlign=middle;resizable=0;points=[];autosize=1;strokeColor=none;fillColor=none;" parent="1" vertex="1">
          <mxGeometry x="258" y="-1980" width="40" height="30" as="geometry" />
        </mxCell>
        <mxCell id="ZoxIKXAUOeXcQ5-5phDQ-52" value="Yes" style="text;html=1;align=center;verticalAlign=middle;resizable=0;points=[];autosize=1;strokeColor=none;fillColor=none;" parent="1" vertex="1">
          <mxGeometry x="308" y="-1935" width="40" height="30" as="geometry" />
        </mxCell>
        <mxCell id="ZoxIKXAUOeXcQ5-5phDQ-53" value="Yes" style="text;html=1;align=center;verticalAlign=middle;resizable=0;points=[];autosize=1;strokeColor=none;fillColor=none;" parent="1" vertex="1">
          <mxGeometry x="308" y="-1815" width="40" height="30" as="geometry" />
        </mxCell>
        <mxCell id="ZoxIKXAUOeXcQ5-5phDQ-54" value="Yes" style="text;html=1;align=center;verticalAlign=middle;resizable=0;points=[];autosize=1;strokeColor=none;fillColor=none;" parent="1" vertex="1">
          <mxGeometry x="303" y="-1695" width="40" height="30" as="geometry" />
        </mxCell>
        <mxCell id="ZoxIKXAUOeXcQ5-5phDQ-55" value="Yes" style="text;html=1;align=center;verticalAlign=middle;resizable=0;points=[];autosize=1;strokeColor=none;fillColor=none;" parent="1" vertex="1">
          <mxGeometry x="303" y="-1570" width="40" height="30" as="geometry" />
        </mxCell>
        <mxCell id="ZoxIKXAUOeXcQ5-5phDQ-56" value="No" style="text;html=1;align=center;verticalAlign=middle;resizable=0;points=[];autosize=1;strokeColor=none;fillColor=none;" parent="1" vertex="1">
          <mxGeometry x="258" y="-1860" width="40" height="30" as="geometry" />
        </mxCell>
        <mxCell id="ZoxIKXAUOeXcQ5-5phDQ-57" value="No" style="text;html=1;align=center;verticalAlign=middle;resizable=0;points=[];autosize=1;strokeColor=none;fillColor=none;" parent="1" vertex="1">
          <mxGeometry x="258" y="-1740" width="40" height="30" as="geometry" />
        </mxCell>
        <mxCell id="ZoxIKXAUOeXcQ5-5phDQ-58" value="No" style="text;html=1;align=center;verticalAlign=middle;resizable=0;points=[];autosize=1;strokeColor=none;fillColor=none;" parent="1" vertex="1">
          <mxGeometry x="258" y="-1630" width="40" height="30" as="geometry" />
        </mxCell>
        <mxCell id="uOiCjjrxeWrXdkk0zyQc-3" value="" style="endArrow=classic;html=1;rounded=0;entryX=1;entryY=0.5;entryDx=0;entryDy=0;" parent="1" target="ZoxIKXAUOeXcQ5-5phDQ-14" edge="1">
          <mxGeometry width="50" height="50" relative="1" as="geometry">
            <mxPoint x="678" y="-2140" as="sourcePoint" />
            <mxPoint x="548" y="-1980" as="targetPoint" />
          </mxGeometry>
        </mxCell>
        <mxCell id="uOiCjjrxeWrXdkk0zyQc-4" value="" style="endArrow=none;html=1;rounded=0;" parent="1" edge="1">
          <mxGeometry width="50" height="50" relative="1" as="geometry">
            <mxPoint x="678" y="-1540" as="sourcePoint" />
            <mxPoint x="678" y="-2140" as="targetPoint" />
          </mxGeometry>
        </mxCell>
        <mxCell id="uOiCjjrxeWrXdkk0zyQc-5" value="" style="endArrow=none;html=1;rounded=0;exitX=1;exitY=0.5;exitDx=0;exitDy=0;" parent="1" edge="1">
          <mxGeometry width="50" height="50" relative="1" as="geometry">
            <mxPoint x="517.9999999999966" y="-1540" as="sourcePoint" />
            <mxPoint x="678" y="-1540" as="targetPoint" />
          </mxGeometry>
        </mxCell>
        <mxCell id="uOiCjjrxeWrXdkk0zyQc-6" value="" style="endArrow=none;html=1;rounded=0;exitX=1;exitY=0.5;exitDx=0;exitDy=0;" parent="1" edge="1">
          <mxGeometry width="50" height="50" relative="1" as="geometry">
            <mxPoint x="517.9999999999966" y="-1665" as="sourcePoint" />
            <mxPoint x="678" y="-1665" as="targetPoint" />
          </mxGeometry>
        </mxCell>
        <mxCell id="uOiCjjrxeWrXdkk0zyQc-7" value="" style="endArrow=none;html=1;rounded=0;exitX=1;exitY=0.5;exitDx=0;exitDy=0;" parent="1" edge="1">
          <mxGeometry width="50" height="50" relative="1" as="geometry">
            <mxPoint x="517.9999999999966" y="-1785" as="sourcePoint" />
            <mxPoint x="678" y="-1785" as="targetPoint" />
          </mxGeometry>
        </mxCell>
        <mxCell id="uOiCjjrxeWrXdkk0zyQc-8" value="" style="endArrow=none;html=1;rounded=0;exitX=1;exitY=0.5;exitDx=0;exitDy=0;" parent="1" edge="1">
          <mxGeometry width="50" height="50" relative="1" as="geometry">
            <mxPoint x="517.9999999999966" y="-1905" as="sourcePoint" />
            <mxPoint x="678" y="-1905" as="targetPoint" />
            <Array as="points" />
          </mxGeometry>
        </mxCell>
        <mxCell id="uOiCjjrxeWrXdkk0zyQc-9" value="" style="endArrow=none;html=1;rounded=0;exitX=1;exitY=0.5;exitDx=0;exitDy=0;" parent="1" edge="1">
          <mxGeometry width="50" height="50" relative="1" as="geometry">
            <mxPoint x="517.9999999999966" y="-2024.9999999999998" as="sourcePoint" />
            <mxPoint x="678" y="-2025" as="targetPoint" />
          </mxGeometry>
        </mxCell>
        <mxCell id="YzYhgDHI8R-GzP9qKLlG-2" value="A1" style="verticalLabelPosition=bottom;verticalAlign=top;html=1;shape=offPageConnector;rounded=0;size=0.5;" vertex="1" parent="1">
          <mxGeometry x="458" y="-2040" width="60" height="60" as="geometry" />
        </mxCell>
        <mxCell id="YzYhgDHI8R-GzP9qKLlG-4" value="B1" style="verticalLabelPosition=bottom;verticalAlign=top;html=1;shape=offPageConnector;rounded=0;size=0.5;" vertex="1" parent="1">
          <mxGeometry x="458" y="-1920" width="60" height="60" as="geometry" />
        </mxCell>
        <mxCell id="YzYhgDHI8R-GzP9qKLlG-6" value="C1" style="verticalLabelPosition=bottom;verticalAlign=top;html=1;shape=offPageConnector;rounded=0;size=0.5;" vertex="1" parent="1">
          <mxGeometry x="458" y="-1800" width="60" height="60" as="geometry" />
        </mxCell>
        <mxCell id="YzYhgDHI8R-GzP9qKLlG-8" value="D1" style="verticalLabelPosition=bottom;verticalAlign=top;html=1;shape=offPageConnector;rounded=0;size=0.5;" vertex="1" parent="1">
          <mxGeometry x="458" y="-1680" width="60" height="60" as="geometry" />
        </mxCell>
        <mxCell id="YzYhgDHI8R-GzP9qKLlG-10" value="E1" style="verticalLabelPosition=bottom;verticalAlign=top;html=1;shape=offPageConnector;rounded=0;size=0.5;" vertex="1" parent="1">
          <mxGeometry x="458" y="-1560" width="60" height="60" as="geometry" />
        </mxCell>
      </root>
    </mxGraphModel>
  </diagram>
</mxfile>
